<svg width="512" height="457" viewBox="0 0 512 457" fill="none" xmlns="http://www.w3.org/2000/svg">
<path d="M431.446 150.782C423.177 147.699 414.436 144.864 405.304 142.276C407.628 133.073 409.544 124.086 411.008 115.383C420.208 60.7119 410.616 22.1409 384 6.77389C357.383 -8.59211 319.185 2.38689 276.437 37.6879C269.633 43.3079 262.807 49.4599 256 56.0739C249.192 49.4589 242.367 43.3069 235.562 37.6879C192.816 2.38589 154.616 -8.59411 128 6.77389C101.384 22.1409 91.792 60.7119 100.992 115.383C102.456 124.086 104.372 133.073 106.696 142.276C97.564 144.865 88.823 147.699 80.554 150.782C28.608 170.15 0 197.742 0 228.476C0 259.21 28.608 286.802 80.554 306.17C88.823 309.253 97.564 312.088 106.696 314.676C104.372 323.879 102.456 332.866 100.992 341.569C91.792 396.24 101.384 434.811 128 450.178C135.852 454.711 144.71 456.951 154.396 456.951C177.547 456.951 205.425 444.152 235.562 419.263C242.367 413.643 249.192 407.491 256 400.877C262.808 407.492 269.633 413.644 276.437 419.263C306.577 444.154 334.451 456.951 357.603 456.951C367.287 456.951 376.15 454.71 383.999 450.178C410.615 434.811 420.207 396.24 411.007 341.569C409.543 332.866 407.627 323.879 405.303 314.676C414.435 312.087 423.176 309.253 431.445 306.17C483.392 286.802 512 259.21 512 228.476C512 197.742 483.392 170.15 431.446 150.782ZM357.204 29.9149C361.731 29.9149 365.699 30.8479 369 32.7549C383.548 41.1539 388.193 70.1819 381.424 110.405C380.078 118.401 378.315 126.671 376.171 135.151C356.934 131.135 336.422 128.109 315.08 126.147C302.71 108.646 289.833 92.3939 276.736 77.7419C283.009 71.6459 289.288 65.9829 295.54 60.8199C319.854 40.7409 341.781 29.9149 357.204 29.9149ZM356.689 263.465C360.762 273.434 364.429 283.282 367.664 292.945C357.678 294.975 347.315 296.723 336.646 298.18C340.161 292.497 343.59 286.761 346.933 280.975C350.273 275.187 353.525 269.35 356.689 263.465ZM320.952 265.976C313.869 278.25 306.373 290.281 298.477 302.048C284.609 302.989 270.409 303.476 256 303.476C241.591 303.476 227.391 302.989 213.523 302.048C205.774 290.509 198.252 278.455 191.048 265.976C183.844 253.497 177.165 240.956 171.047 228.476C177.289 215.754 183.96 203.247 191.048 190.976C198.131 178.702 205.627 166.671 213.523 154.904C227.391 153.963 241.591 153.476 256 153.476C270.409 153.476 284.609 153.963 298.477 154.904C306.226 166.443 313.748 178.497 320.952 190.976C328.156 203.455 334.835 215.996 340.953 228.476C334.711 241.198 328.04 253.705 320.952 265.976ZM256 357.415C249.249 349.782 242.554 341.682 235.957 333.17C242.593 333.37 249.276 333.476 256 333.476C262.724 333.476 269.407 333.37 276.043 333.17C269.446 341.682 262.751 349.781 256 357.415ZM165.067 280.976C168.409 286.762 171.839 292.498 175.354 298.181C164.684 296.724 154.322 294.976 144.336 292.946C147.571 283.283 151.238 273.434 155.311 263.466C158.476 269.351 161.728 275.188 165.067 280.976ZM155.311 193.487C151.238 183.518 147.571 173.67 144.336 164.007C154.322 161.977 164.685 160.229 175.354 158.772C171.839 164.455 168.41 170.191 165.067 175.977C161.727 181.764 158.475 187.602 155.311 193.487ZM256 99.5379C262.751 107.171 269.446 115.271 276.043 123.783C269.407 123.582 262.723 123.476 256 123.476C249.277 123.476 242.593 123.582 235.957 123.782C242.554 115.271 249.249 107.171 256 99.5379ZM346.933 175.976C343.591 170.19 340.161 164.454 336.646 158.771C347.316 160.228 357.678 161.976 367.664 164.006C364.429 173.669 360.762 183.518 356.689 193.486C353.524 187.601 350.272 181.764 346.933 175.976ZM130.576 110.404C123.807 70.1809 128.452 41.1529 143 32.7539C157.55 24.3539 185.01 34.8469 216.459 60.8189C222.711 65.9819 228.991 71.6449 235.263 77.7409C222.166 92.3919 209.29 108.644 196.919 126.146C175.577 128.108 155.064 131.134 135.828 135.15C133.685 126.67 131.921 118.4 130.576 110.404ZM91.035 278.061C52.817 263.811 30 245.275 30 228.476C30 211.677 52.817 193.141 91.035 178.891C98.633 176.058 106.676 173.451 115.092 171.067C121.232 189.735 128.868 209.012 137.84 228.476C128.869 247.94 121.232 267.217 115.092 285.885C106.676 283.501 98.632 280.894 91.035 278.061ZM143 424.198C128.452 415.799 123.807 386.771 130.576 346.548C131.921 338.552 133.685 330.282 135.829 321.802C155.066 325.818 175.578 328.844 196.92 330.806C209.29 348.307 222.167 364.559 235.264 379.211C228.991 385.307 222.712 390.97 216.46 396.133C185.01 422.105 157.549 432.598 143 424.198ZM381.424 346.548C388.193 386.771 383.548 415.799 369 424.198C354.452 432.6 326.99 422.105 295.541 396.133C289.289 390.97 283.009 385.307 276.737 379.211C289.834 364.56 302.71 348.308 315.081 330.806C336.423 328.844 356.936 325.818 376.172 321.802C378.315 330.282 380.079 338.552 381.424 346.548ZM420.965 278.061C413.367 280.894 405.324 283.501 396.908 285.885C390.768 267.217 383.132 247.94 374.16 228.476C383.131 209.012 390.768 189.735 396.908 171.067C405.324 173.451 413.368 176.058 420.965 178.891C459.183 193.141 482 211.678 482 228.476C482 245.274 459.183 263.811 420.965 278.061Z" fill="#58C4DC"/>
<path d="M256 183.476C231.187 183.476 211 203.663 211 228.476C211 253.289 231.187 273.476 256 273.476C280.813 273.476 301 253.289 301 228.476C301 203.663 280.813 183.476 256 183.476Z" fill="#58C4DC"/>
</svg>
